<mxfile host="app.diagrams.net" agent="Mozilla/5.0 (Macintosh; Intel Mac OS X 10_15_7) AppleWebKit/537.36 (KHTML, like Gecko) Chrome/131.0.0.0 Safari/537.36" version="26.0.6">
  <diagram name="Page-1" id="jeGiIoi--QpIN_kYvVql">
    <mxGraphModel dx="2024" dy="1166" grid="1" gridSize="10" guides="1" tooltips="1" connect="1" arrows="1" fold="1" page="1" pageScale="1" pageWidth="1400" pageHeight="850" math="0" shadow="0">
      <root>
        <mxCell id="0" />
        <mxCell id="1" parent="0" />
        <mxCell id="FCDKjyK_F_AZ7C36kc25-10" style="edgeStyle=orthogonalEdgeStyle;rounded=0;orthogonalLoop=1;jettySize=auto;html=1;exitX=1;exitY=0.5;exitDx=0;exitDy=0;entryX=0;entryY=0.5;entryDx=0;entryDy=0;" edge="1" parent="1" source="FCDKjyK_F_AZ7C36kc25-1" target="FCDKjyK_F_AZ7C36kc25-9">
          <mxGeometry relative="1" as="geometry" />
        </mxCell>
        <mxCell id="FCDKjyK_F_AZ7C36kc25-1" value="" style="rounded=0;whiteSpace=wrap;html=1;" vertex="1" parent="1">
          <mxGeometry x="20" y="230" width="200" height="320" as="geometry" />
        </mxCell>
        <mxCell id="FCDKjyK_F_AZ7C36kc25-2" value="" style="verticalLabelPosition=bottom;verticalAlign=top;html=1;shadow=0;dashed=0;strokeWidth=1;shape=mxgraph.android.phone2;strokeColor=#c0c0c0;" vertex="1" parent="1">
          <mxGeometry x="30" y="250" width="50" height="100" as="geometry" />
        </mxCell>
        <mxCell id="FCDKjyK_F_AZ7C36kc25-5" value="" style="sketch=0;pointerEvents=1;shadow=0;dashed=0;html=1;strokeColor=none;fillColor=#434445;aspect=fixed;labelPosition=center;verticalLabelPosition=bottom;verticalAlign=top;align=center;outlineConnect=0;shape=mxgraph.vvd.laptop;" vertex="1" parent="1">
          <mxGeometry x="30" y="400" width="180" height="129.6" as="geometry" />
        </mxCell>
        <mxCell id="FCDKjyK_F_AZ7C36kc25-6" value="" style="verticalLabelPosition=bottom;verticalAlign=top;html=1;shadow=0;dashed=0;strokeWidth=1;shape=mxgraph.android.tab2;strokeColor=#c0c0c0;direction=north;" vertex="1" parent="1">
          <mxGeometry x="100" y="260" width="110" height="80" as="geometry" />
        </mxCell>
        <mxCell id="FCDKjyK_F_AZ7C36kc25-7" value="&lt;font style=&quot;font-size: 18px;&quot;&gt;&lt;b&gt;Client&lt;/b&gt;&lt;/font&gt;" style="text;html=1;align=center;verticalAlign=middle;resizable=0;points=[];autosize=1;strokeColor=none;fillColor=none;" vertex="1" parent="1">
          <mxGeometry x="85" y="563" width="70" height="40" as="geometry" />
        </mxCell>
        <mxCell id="FCDKjyK_F_AZ7C36kc25-9" value="" style="rounded=0;whiteSpace=wrap;html=1;" vertex="1" parent="1">
          <mxGeometry x="340" y="35" width="1030" height="710" as="geometry" />
        </mxCell>
        <mxCell id="FCDKjyK_F_AZ7C36kc25-11" value="" style="rounded=0;whiteSpace=wrap;html=1;" vertex="1" parent="1">
          <mxGeometry x="370" y="360" width="120" height="60" as="geometry" />
        </mxCell>
      </root>
    </mxGraphModel>
  </diagram>
</mxfile>
